:SAMPLES-PER-SECOND 30
:FRAME-RANGE 1-1770
:FULLY-SPECIFIED
:DEGREES
996
root  40.088 38.3948 -16.4 155.813 -79.0329 -152.893
RightUpLeg  -21.7898 9.587 -0.948973
RightLeg  27.0715 0.0485742 -0.208445
RightFoot  -8.25187 -0.263482 7.67559
RightToes  -1.33073e-015 0 -3.6325e-017
Spine  -5.37943 -2.27835 5.0569
Spine1  10.5921 -3.24865 4.00396
HEad  27.3162 22.7933 -4.5002
LeftShoulder1  1.02776 -0.143665 -23.8027
LeftArm  -2.66426 10.0329 -51.4584
LeftForeArm  40.1421 3.75916 -12.5165
LeftHand  -0.0275264 5.33712 2.56116
RightShoulder  0.88018 -0.765749 28.5502
RightArm  -27.8842 -3.25764 41.6674
RightForeArm  67.7376 -5.16253 2.14537
RightHand  0.265152 -7.42773 -16.1327
LeftUpLeg  -11.8977 6.50143 3.81275
LeftLeg  62.0788 -0.898813 -1.23352
LeftFoot  2.72671 1.1546 -9.47679
LeftToes  1.09107e-011 -1.16422e-010 2.98337e-011
997
root  39.1574 38.5951 -16.4616 152.911 -81.1793 -150.055
RightUpLeg  -19.471 7.98956 -1.43178
RightLeg  26.4983 -0.364002 -0.432619
RightFoot  -9.53196 -0.186096 7.666
RightToes  -1.33073e-015 0 -3.6325e-017
Spine  -4.55134 -1.67408 5.55089
Spine1  9.91041 -2.39068 3.22803
HEad  26.8946 21.9583 -4.45581
LeftShoulder1  0.943827 0.139271 -23.8134
LeftArm  -2.05672 10.5273 -51.2148
LeftForeArm  37.7357 2.75597 -12.7437
LeftHand  -0.0391405 4.77482 3.04056
RightShoulder  1.00947 -0.347758 28.0475
RightArm  -26.9644 -1.00511 43.313
RightForeArm  67.7446 -5.2446 2.63521
RightHand  0.274858 -7.34264 -17.2912
LeftUpLeg  -16.5035 7.37196 3.2834
LeftLeg  64.3823 0.157316 1.02679
LeftFoot  0.44787 0.701019 -6.81235
LeftToes  1.09107e-011 -1.16422e-010 2.98337e-011
998
root  38.2365 38.7534 -16.4848 147.221 -83.3212 -144.266
RightUpLeg  -17.2575 5.69828 -1.89135
RightLeg  25.7966 -0.211441 -0.345938
RightFoot  -10.8146 -0.108452 7.58182
RightToes  -1.33073e-015 0 -3.6325e-017
Spine  -4.08621 -0.958793 6.25983
Spine1  9.47844 -1.42814 2.27886
HEad  26.7196 21.1024 -4.35761
LeftShoulder1  0.880785 0.338035 -23.6778
LeftArm  -3.27675 10.8208 -51.3561
LeftForeArm  36.9999 1.85592 -12.2746
LeftHand  -0.0361608 5.05014 4.53362
RightShoulder  1.1337 0.105834 27.1516
RightArm  -26.1059 0.962167 44.9753
RightForeArm  67.1224 -5.33844 3.05543
RightHand  0.274446 -7.24947 -18.0464
LeftUpLeg  -20.6292 8.30552 2.99669
LeftLeg  63.8015 0.108143 0.891473
LeftFoot  -1.60714 0.386927 -4.43031
LeftToes  1.09107e-011 -1.16422e-010 2.98337e-011
999
root  37.3294 38.9046 -16.4928 134.659 -85.4363 -131.547
RightUpLeg  -14.9567 2.96382 -2.36344
RightLeg  24.825 0.0878352 -0.188042
RightFoot  -11.9133 -0.0445793 7.2832
RightToes  -1.33073e-015 0 -3.6325e-017
Spine  -3.78462 -0.376072 6.72914
Spine1  9.0972 -0.613506 1.16461
HEad  26.5494 20.4931 -3.96743
LeftShoulder1  0.846207 0.422291 -23.3275
LeftArm  -3.71897 11.1275 -51.3092
LeftForeArm  36.5976 0.36291 -12.0571
LeftHand  -0.0388729 4.9992 4.94419
RightShoulder  1.25341 0.546222 26.4587
RightArm  -24.8662 3.11591 46.0915
RightForeArm  65.8944 -5.48077 3.63441
RightHand  0.250865 -7.05563 -18.4441
LeftUpLeg  -23.9571 9.25941 2.90021
LeftLeg  60.4564 0.494081 1.52565
LeftFoot  -4.45646 0.243333 -3.60013
LeftToes  1.09107e-011 -1.16422e-010 2.98337e-011
1000
root  36.435 39.0315 -16.4713 103.865 -87.0274 -100.475
RightUpLeg  -12.6718 0.481299 -2.92343
RightLeg  23.5861 0.169349 -0.14794
RightFoot  -12.9036 0.0124768 7.3368
RightToes  -1.33073e-015 0 -3.6325e-017
Spine  -3.47862 0.106114 6.68725
Spine1  8.58179 -0.014488 0.38597
HEad  26.352 19.7156 -3.64884
LeftShoulder1  0.798099 0.580384 -23.2606
LeftArm  -3.6935 10.8369 -50.9004
LeftForeArm  36.5631 -0.517016 -11.9842
LeftHand  -0.0388909 5.03957 5.71672
RightShoulder  1.33106 0.868089 25.7971
RightArm  -23.2743 5.26045 46.6467
RightForeArm  64.4767 -5.65034 4.3435
RightHand  0.23555 -6.8841 -19.2598
LeftUpLeg  -26.5232 9.96744 2.93236
LeftLeg  54.6757 1.78205 3.19777
LeftFoot  -6.54099 0.15411 -2.73969
LeftToes  1.09107e-011 -1.16422e-010 2.98337e-011
1001
root  35.5529 39.1557 -16.4036 53.4541 -86.8556 -49.5919
RightUpLeg  -10.3436 -1.60049 -3.51107
RightLeg  21.8947 -0.293435 -0.400405
RightFoot  -13.6884 0.0615788 7.53615
RightToes  -1.33073e-015 0 -3.6325e-017
Spine  -3.51443 0.407 6.35101
Spine1  8.41948 0.372304 -0.355468
HEad  25.8635 18.8558 -3.39592
LeftShoulder1  0.787476 0.607855 -23.1597
LeftArm  -3.56907 10.2792 -50.4046
LeftForeArm  36.6937 -1.03839 -11.935
LeftHand  -0.0434876 4.96599 6.21195
RightShoulder  1.385 1.13438 25.0768
RightArm  -21.5014 7.40002 47.0706
RightForeArm  62.6993 -4.3593 5.33278
RightHand  0.257719 -6.94388 -20.0794
LeftUpLeg  -28.1281 9.59967 3.10559
LeftLeg  46.2551 3.85873 4.72188
LeftFoot  -6.05557 0.113017 -1.66006
LeftToes  1.09107e-011 -1.16422e-010 2.98337e-011
1002
root  34.6639 39.253 -16.2753 28.2234 -85.1943 -23.8192
RightUpLeg  -8.03637 -3.68536 -4.08767
RightLeg  20.0564 -0.575485 -0.55153
RightFoot  -14.3042 0.107251 7.89388
RightToes  -1.33073e-015 0 -3.6325e-017
Spine  -3.77554 0.611485 5.81291
Spine1  8.49573 0.632705 -0.937478
HEad  25.1984 18.138 -3.29322
LeftShoulder1  0.820078 0.496263 -23.1611
LeftArm  -3.60018 9.83469 -49.8004
LeftForeArm  36.7697 -1.39868 -11.8489
LeftHand  -0.0490344 4.87329 6.50253
RightShoulder  1.4268 1.37489 24.3393
RightArm  -20.0446 9.3714 47.4592
RightForeArm  61.7694 -2.12906 6.24985
RightHand  0.178595 -6.45395 -20.5909
LeftUpLeg  -28.5804 8.58138 3.68858
LeftLeg  35.8689 6.34978 5.26905
LeftFoot  -3.60972 0.0931365 -1.05684
LeftToes  1.09107e-011 -1.16422e-010 2.98337e-011
